<?xml version="1.0" encoding="UTF-8" standalone="no"?>
<!-- Created with Inkscape (http://www.inkscape.org/) -->

<svg
   width="210mm"
   height="297mm"
   viewBox="0 0 210 297"
   version="1.1"
   id="svg5"
   sodipodi:docname="Favicon_dark.svg"
   inkscape:version="1.1.2 (0a00cf5339, 2022-02-04, custom)"
   xmlns:inkscape="http://www.inkscape.org/namespaces/inkscape"
   xmlns:sodipodi="http://sodipodi.sourceforge.net/DTD/sodipodi-0.dtd"
   xmlns="http://www.w3.org/2000/svg"
   xmlns:svg="http://www.w3.org/2000/svg">
  <sodipodi:namedview
     id="namedview7"
     pagecolor="#ffffff"
     bordercolor="#666666"
     borderopacity="1.0"
     inkscape:pageshadow="2"
     inkscape:pageopacity="0.0"
     inkscape:pagecheckerboard="0"
     inkscape:document-units="mm"
     showgrid="false"
     inkscape:zoom="0.25"
     inkscape:cx="550"
     inkscape:cy="968"
     inkscape:window-width="3024"
     inkscape:window-height="1571"
     inkscape:window-x="64"
     inkscape:window-y="1582"
     inkscape:window-maximized="0"
     inkscape:current-layer="layer5" />
  <defs
     id="defs2">
    <rect
       x="-888.81916"
       y="136.5229"
       width="66.251728"
       height="28.538053"
       id="rect48056" />
    <rect
       x="70"
       y="70"
       width="135"
       height="45"
       id="rect41287" />
    <rect
       x="70"
       y="70"
       width="135"
       height="45"
       id="rect41287-2" />
    <rect
       x="-888.81915"
       y="136.5229"
       width="57.580369"
       height="35.874467"
       id="rect48056-0" />
    <rect
       x="-888.81915"
       y="136.5229"
       width="32.633573"
       height="29.300986"
       id="rect48056-4" />
    <rect
       x="-888.81915"
       y="136.5229"
       width="33.215084"
       height="29.705683"
       id="rect48056-2" />
    <rect
       x="-888.81915"
       y="136.5229"
       width="89.611709"
       height="36.99907"
       id="rect48056-1" />
    <rect
       x="-888.81915"
       y="136.5229"
       width="57.580368"
       height="35.874466"
       id="rect48056-0-5" />
    <rect
       x="-888.81915"
       y="136.5229"
       width="32.633572"
       height="29.300985"
       id="rect48056-4-5" />
    <rect
       x="-888.81915"
       y="136.5229"
       width="33.215084"
       height="29.705683"
       id="rect48056-2-4" />
    <rect
       x="-888.81915"
       y="136.5229"
       width="57.580368"
       height="35.874466"
       id="rect48056-0-5-3" />
  </defs>
  <g
     inkscape:groupmode="layer"
     id="layer2"
     inkscape:label="Hintergrund"
     style="display:inline" />
  <g
     inkscape:label="Ebene 1"
     inkscape:groupmode="layer"
     id="layer1"
     style="display:inline" />
  <g
     inkscape:groupmode="layer"
     id="layer3"
     inkscape:label="Ebene 2"
     style="display:inline" />
  <g
     inkscape:groupmode="layer"
     id="layer4"
     inkscape:label="Ebene 3"
     style="display:inline" />
  <g
     inkscape:groupmode="layer"
     id="layer5"
     inkscape:label="Ebene 4"
     style="display:inline">
    <g
       id="g1892"
       transform="matrix(1.707804,0,0,1.707804,-80.931474,-27.705053)">
      <g
         id="g6790-5-7"
         transform="matrix(-3.4987773,0.05888693,-0.05888693,-3.4987773,145.78138,169.33745)"
         style="fill:none;fill-rule:evenodd;stroke:none;stroke-width:1">
        <polygon
           id="Path-9-5"
           points="24,24 0,24 0,0 24,0 " />
        <path
           d="M 6.18,20 C 4.9760192,20 4,19.023981 4,17.82 c 0,-1.203981 0.9760192,-2.18 2.18,-2.18 1.2039807,0 2.18,0.976019 2.18,2.18 C 8.36,19.023981 7.3839807,20 6.18,20 Z M 5.59,10.23 c 4.2,0.67 7.51,3.98 8.19,8.18 C 13.91,19.25 13.22,20 12.37,20 11.66,20 11.09,19.47 10.97,18.77 10.45,15.85 8.15,13.54 5.23,13.03 4.53,12.91 4,12.34 4,11.63 4,10.78 4.75,10.09 5.59,10.23 Z M 5.56,4.52 C 12.91,5.25 18.75,11.1 19.48,18.44 19.56,19.27 18.9,20 18.06,20 17.33,20 16.73,19.45 16.66,18.72 16.06,12.71 11.28,7.93 5.27,7.33 4.55,7.26 4,6.66 4,5.93 4,5.1 4.73,4.43 5.56,4.52 Z"
           id="🔹Icon-Color-2-3"
           fill="#1d1d1d"
           style="fill:#cccccc" />
      </g>
      <g
         id="g6917-2-5"
         transform="matrix(2.6543978,-0.04467539,0.04467539,2.6543978,22.889465,12.981505)">
        <path
           d="m 34,12 a 1,1 0 0 1 -0.972,-1.239 35.173,35.173 0 0 0 0.927,-6.573 l -3.69,0.615 A 25.348,25.348 0 0 1 31,11 1,1 0 0 1 29,11 22.532,22.532 0 0 0 28.045,4.3 1,1 0 0 1 28.835,3.016 l 6,-1 A 1,1 0 0 1 36,3.023 38.225,38.225 0 0 1 34.971,11.239 1,1 0 0 1 34,12 Z"
           style="fill:#999999"
           id="path6903-8-6" />
        <path
           d="M 32,62 A 1,1 0 0 1 31.514,61.874 L 22.772,57.018 A 19.013,19.013 0 0 1 13,40.409 V 33 a 1,1 0 0 1 2,0 v 7.409 A 17.011,17.011 0 0 0 23.744,55.27 L 32,59.856 40.256,55.27 A 17.011,17.011 0 0 0 49,40.409 V 33 a 1,1 0 0 1 2,0 v 7.409 a 19.011,19.011 0 0 1 -9.773,16.609 l -8.741,4.856 A 1,1 0 0 1 32,62 Z"
           style="fill:#999999"
           id="path6905-9-2" />
        <path
           d="M 50,30 H 14 A 5.006,5.006 0 0 1 9,25 11.013,11.013 0 0 1 20,14 h 24 a 11.013,11.013 0 0 1 11,11 5.006,5.006 0 0 1 -5,5 z M 20,16 a 9.011,9.011 0 0 0 -9,9 3,3 0 0 0 3,3 h 36 a 3,3 0 0 0 3,-3 9.01,9.01 0 0 0 -9,-9 z"
           style="fill:#e78753;fill-opacity:1"
           id="path6907-7-9" />
      </g>
    </g>
    <text
       xml:space="preserve"
       style="font-style:normal;font-weight:normal;font-size:10.5833px;line-height:1.25;font-family:sans-serif;fill:#000000;fill-opacity:1;stroke:none;stroke-width:0.264583"
       x="13.064447"
       y="220.28113"
       id="text93528"><tspan
         sodipodi:role="line"
         id="tspan93526"
         style="stroke-width:0.264583" /></text>
  </g>
  <style
     id="style198">
        .st0{fill:#fff}.st1{fill:none;stroke:#231f20;stroke-width:50;stroke-linecap:round;stroke-linejoin:round;stroke-miterlimit:10}
    </style>
  <style
     id="style79059">
        .st0{fill:#fff}.st1{fill:none;stroke:#231f20;stroke-width:50;stroke-linecap:round;stroke-linejoin:round;stroke-miterlimit:10}
    </style>
</svg>
