<svg xmlns="http://www.w3.org/2000/svg" width="50" height="76" fill="none" viewBox="0 0 50 76">
  <path fill="#fff" fill-rule="evenodd" d="M30.75 8.241c9.051 1.213 15 6.965 15 16.634 0 4.9-1.528 8.794-4.213 11.601C46.5 39.133 49.5 44.114 49.5 51.125 49.5 62.009 42.272 68 31.687 68h-.937v7.5h-7.5V68h-7.5v7.5h-7.5V68H.75v-7.5h7.5v-45H.75V8h7.5V.5h7.5V8h7.5V.5h7.5v7.741ZM27 15.5H15.75v18.75H27c7.336 0 11.25-3.042 11.25-9.375S34.336 15.5 27 15.5ZM15.75 41.75V60.5h15.938C38.407 60.5 42 57.523 42 51.125s-3.592-9.375-10.313-9.375H15.75Z" clip-rule="evenodd"/>
</svg>
