<svg xmlns="http://www.w3.org/2000/svg" width="90" height="90" fill="none" viewBox="0 0 90 90">
  <path fill="#fff" fill-rule="evenodd" d="M45 11.25c14.498 0 26.25 11.753 26.25 26.25 0 14.498-11.752 26.25-26.25 26.25-14.497 0-26.25-11.752-26.25-26.25 0-14.497 11.753-26.25 26.25-26.25Zm3.75 63.565v3.935h7.5v7.5h-22.5v-7.5h7.5v-3.936A37.373 37.373 0 0 1 18.648 64.18l5.27-5.336A29.886 29.886 0 0 0 45 67.5c16.569 0 30-13.431 30-30a29.882 29.882 0 0 0-8.4-20.82l5.398-5.206A37.38 37.38 0 0 1 82.5 37.5c0 19.445-14.8 35.433-33.75 37.315ZM26.25 37.5c0-10.355 8.395-18.75 18.75-18.75s18.75 8.395 18.75 18.75S55.355 56.25 45 56.25 26.25 47.855 26.25 37.5Z" clip-rule="evenodd"/>
</svg>
