<svg xmlns="http://www.w3.org/2000/svg" width="90" height="90" fill="none">
   <path fill="#000" fill-rule="evenodd"
      d="M62.075 7.5c-5.43 0-8.928.647-12.94 2.61a23.132 23.132 0 00-4.173 2.624 23.63 23.63 0 00-4.005-2.504c-4.09-2.022-7.769-2.73-13.003-2.73C13.938 7.5 3.75 19.115 3.75 34.2c0 11.392 6.352 22.396 18.183 33.037 6.21 5.586 14.14 11.113 19.818 14.053L45 82.974l3.249-1.683c5.678-2.94 13.608-8.468 19.818-14.053C79.898 56.597 86.25 45.592 86.25 34.2c0-14.926-10.283-26.642-24.175-26.7z"
      clip-rule="evenodd" />
</svg>