<svg xmlns="http://www.w3.org/2000/svg" width="90" height="90" fill="none" viewBox="0 0 90 90">
  <path fill="#000" fill-rule="evenodd"
    d="M62.075 7.5c-5.43 0-8.928.647-12.94 2.61a23.132 23.132 0 0 0-4.173 2.624 23.63 23.63 0 0 0-4.005-2.504c-4.09-2.022-7.769-2.73-13.003-2.73C13.938 7.5 3.75 19.115 3.75 34.2c0 11.392 6.352 22.396 18.183 33.037 6.21 5.586 14.14 11.113 19.818 14.053L45 82.974l3.249-1.683c5.678-2.94 13.608-8.468 19.818-14.053C79.898 56.597 86.25 45.592 86.25 34.2c0-14.926-10.283-26.642-24.175-26.7ZM78.75 34.2c0 8.925-5.302 18.11-15.699 27.46C57.383 66.76 50.096 71.855 45 74.527c-5.096-2.672-12.383-7.767-18.052-12.865C16.552 52.31 11.25 43.125 11.25 34.199 11.25 23.055 18.314 15 27.954 15c4.162 0 6.727.493 9.678 1.953 1.743.862 3.284 2 4.617 3.424l2.76 2.943 2.734-2.967a15.73 15.73 0 0 1 4.69-3.506C55.296 15.444 57.7 15 62.058 15c9.522.04 16.691 8.209 16.691 19.2Z"
    clip-rule="evenodd" />
</svg>