<?xml version="1.0" encoding="UTF-8" standalone="no"?>
<svg
   width="90"
   height="90"
   fill="none"
   viewBox="0 0 90 90"
   version="1.1"
   id="svg1517"
   sodipodi:docname="heartred.svg"
   inkscape:version="1.1.2 (0a00cf5339, 2022-02-04, custom)"
   xmlns:inkscape="http://www.inkscape.org/namespaces/inkscape"
   xmlns:sodipodi="http://sodipodi.sourceforge.net/DTD/sodipodi-0.dtd"
   xmlns="http://www.w3.org/2000/svg"
   xmlns:svg="http://www.w3.org/2000/svg">
  <defs
     id="defs1521" />
  <sodipodi:namedview
     id="namedview1519"
     pagecolor="#ffffff"
     bordercolor="#666666"
     borderopacity="1.0"
     inkscape:pageshadow="2"
     inkscape:pageopacity="0.0"
     inkscape:pagecheckerboard="0"
     showgrid="false"
     inkscape:zoom="9.2555556"
     inkscape:cx="26.956783"
     inkscape:cy="44.837935"
     inkscape:window-width="1396"
     inkscape:window-height="749"
     inkscape:window-x="272"
     inkscape:window-y="144"
     inkscape:window-maximized="0"
     inkscape:current-layer="svg1517" />
  <path
     fill="#000"
     fill-rule="evenodd"
     d="M62.075 7.5c-5.43 0-8.928.647-12.94 2.61a23.132 23.132 0 0 0-4.173 2.624 23.63 23.63 0 0 0-4.005-2.504c-4.09-2.022-7.769-2.73-13.003-2.73C13.938 7.5 3.75 19.115 3.75 34.2c0 11.392 6.352 22.396 18.183 33.037 6.21 5.586 14.14 11.113 19.818 14.053L45 82.974l3.249-1.683c5.678-2.94 13.608-8.468 19.818-14.053C79.898 56.597 86.25 45.592 86.25 34.2c0-14.926-10.283-26.642-24.175-26.7ZM78.75 34.2c0 8.925-5.302 18.11-15.699 27.46C57.383 66.76 50.096 71.855 45 74.527c-5.096-2.672-12.383-7.767-18.052-12.865C16.552 52.31 11.25 43.125 11.25 34.199 11.25 23.055 18.314 15 27.954 15c4.162 0 6.727.493 9.678 1.953 1.743.862 3.284 2 4.617 3.424l2.76 2.943 2.734-2.967a15.73 15.73 0 0 1 4.69-3.506C55.296 15.444 57.7 15 62.058 15c9.522.04 16.691 8.209 16.691 19.2Z"
     clip-rule="evenodd"
     id="path1515" />
  <path
     style="fill:#aa0000;stroke-width:0.108043"
     d="M 43.251733,73.476559 C 34.144461,68.227217 24.652062,60.293154 19.02127,53.223933 12.63418,45.205213 10.216552,37.270477 11.782789,29.466996 c 1.485618,-7.401812 6.304522,-12.66715 12.883586,-14.077148 1.35862,-0.291174 4.203596,-0.392013 6.184379,-0.219204 3.721741,0.324697 6.849469,1.511259 9.557437,3.625794 0.483715,0.377712 1.7026,1.553932 2.708634,2.613823 1.006035,1.059891 1.85819,1.927074 1.89368,1.927074 0.03549,0 0.807073,-0.797302 1.714631,-1.771782 0.907556,-0.97448 1.972456,-2.05794 2.366444,-2.407689 2.270679,-2.015713 5.408326,-3.416056 8.711541,-3.887991 1.549526,-0.221383 5.932361,-0.189825 7.117239,0.05125 3.733842,0.759677 6.978112,2.727533 9.38613,5.693286 2.16904,2.671423 3.554159,5.954099 4.148564,9.831933 0.262618,1.7133 0.26238,5.01666 -4.32e-4,6.644657 -1.129758,6.996997 -4.889615,13.542909 -11.844428,20.621152 -3.879978,3.948787 -7.662406,7.140794 -12.789523,10.793094 -3.151162,2.244729 -8.360347,5.482513 -8.820671,5.482513 -0.09207,0 -0.87879,-0.410038 -1.748267,-0.911196 z"
     id="path2411" />
  <path
     style="fill:#aa0000;stroke-width:0.108043"
     d="M 43.695073,73.642925 C 38.659283,70.843648 32.353557,66.266476 27.206314,61.674142 25.474955,60.129434 21.768259,56.374202 20.452542,54.831933 15.055987,48.50615 12.1985,42.64493 11.498015,36.464586 c -0.160405,-1.415244 -0.07163,-4.6346 0.166842,-6.05042 0.953666,-5.661962 3.750862,-10.221226 7.901571,-12.879097 0.860555,-0.551048 2.472901,-1.300737 3.547381,-1.649417 1.839738,-0.597015 2.3115,-0.651893 5.571665,-0.648122 2.807915,0.0032 3.04575,0.01938 4.328034,0.293551 2.495162,0.533506 4.485334,1.358009 6.481388,2.685157 0.786339,0.522826 1.537178,1.20092 3.263552,2.947365 l 2.242241,2.268309 2.349596,-2.383854 c 2.516225,-2.552914 3.186396,-3.079679 5.196246,-4.084335 1.240473,-0.620069 3.16927,-1.259644 4.608331,-1.528086 0.896543,-0.167241 1.604517,-0.20109 4.159664,-0.198881 2.971506,0.0026 3.119148,0.01272 4.220208,0.290097 6.417551,1.616712 10.984322,6.633428 12.56855,13.80688 0.401953,1.820059 0.538261,3.525027 0.462123,5.780313 -0.122198,3.619609 -1.062116,7.017568 -3.030407,10.955422 -2.079408,4.160161 -4.926902,7.899591 -9.516831,12.497836 -3.729876,3.736634 -6.867427,6.400106 -11.402323,9.679448 -3.606625,2.608077 -9.060777,6.034515 -9.601984,6.032211 -0.09676,-4.32e-4 -0.690215,-0.286629 -1.318789,-0.636038 z"
     id="path2450" />
  <path
     style="fill:#aa0000;stroke-width:0.108043"
     d="M 43.662668,73.628908 C 36.7705,69.796158 28.376347,63.252491 22.709064,57.294512 17.532806,51.852746 14.435684,47.081145 12.695304,41.866747 c -0.984101,-2.948491 -1.359576,-5.466718 -1.264599,-8.481393 0.06458,-2.049883 0.232382,-3.296615 0.683264,-5.076525 1.717793,-6.781203 6.598469,-11.692832 12.844014,-12.925469 1.025923,-0.202479 6.15679,-0.206808 7.292917,-0.0062 2.790316,0.492806 5.041352,1.374916 7.243996,2.83869 0.784466,0.52132 1.541789,1.204314 3.265695,2.945176 l 2.244385,2.266459 2.347452,-2.377571 c 1.539091,-1.558838 2.626492,-2.565383 3.157776,-2.922972 1.755706,-1.181707 4.046291,-2.13702 6.331923,-2.640796 0.956057,-0.210725 1.400174,-0.236497 4.202291,-0.243864 3.397428,-0.0089 3.879222,0.04304 5.61635,0.605783 5.818634,1.884964 9.957927,6.763344 11.442516,13.48562 0.607529,2.750917 0.65603,6.463699 0.118559,9.075631 -0.923721,4.488975 -2.727961,8.463845 -5.800651,12.779253 -3.767153,5.290741 -10.293602,11.602806 -17.169098,16.605119 -3.87641,2.820307 -9.65459,6.485976 -10.223821,6.485976 -0.10742,0 -0.721943,-0.292862 -1.365605,-0.650804 z"
     id="path2489" />
  <path
     style="fill:#aa0000;stroke-width:0.108043"
     d="M 44.027611,73.835699 C 40.334212,71.825768 34.858214,68.062918 30.846339,64.778141 27.096079,61.707564 22.80088,57.596425 20.414407,54.79324 15.027036,48.465159 12.200145,42.654102 11.498109,36.464586 c -0.160884,-1.418436 -0.07154,-4.638671 0.167826,-6.048914 1.164962,-6.863493 4.97144,-12.009809 10.50282,-14.199694 2.19459,-0.868843 3.746731,-1.086891 7.162395,-1.006187 3.495259,0.08259 5.592354,0.559058 8.218968,1.867403 1.906284,0.94954 2.815796,1.662281 5.208608,4.081735 l 2.242519,2.267488 2.349317,-2.377026 c 1.562095,-1.580519 2.627139,-2.564154 3.178421,-2.935473 1.744694,-1.175147 4.021132,-2.123188 6.32188,-2.632799 0.949423,-0.210296 1.387952,-0.235491 4.193555,-0.24094 3.39599,-0.0066 3.881654,0.04597 5.61635,0.607934 2.452453,0.794479 4.557753,2.093904 6.435793,3.972274 2.766368,2.766854 4.417735,6.129046 5.256281,10.701822 0.147229,0.802871 0.187588,1.61467 0.185313,3.727491 -0.0027,2.513375 -0.02326,2.798687 -0.29579,4.105642 -0.74978,3.595682 -1.985376,6.717383 -3.955711,9.993998 -4.290954,7.135741 -12.35795,15.00965 -22.183351,21.65238 -3.383983,2.287835 -6.672797,4.279382 -7.062103,4.276472 -0.111795,-8.65e-4 -0.567911,-0.199958 -1.013589,-0.442493 z"
     id="path2528" />
  <path
     style="fill:#000000;stroke-width:0.108043"
     d="M 43.700995,73.649287 C 36.213312,69.479183 27.24475,62.358967 21.56395,56.0745 19.312945,53.584293 18.065939,51.99645 16.556283,49.698119 11.890147,42.594296 10.378057,35.521572 12.047031,28.60632 c 1.574692,-6.524602 5.82903,-11.22917 11.690582,-12.927782 1.420083,-0.411523 2.826238,-0.530887 5.526208,-0.469102 3.633198,0.08314 5.667959,0.549315 8.417091,1.928394 1.769197,0.887504 2.70479,1.628114 5.080312,4.021545 l 2.245018,2.261944 2.346818,-2.383857 c 1.888717,-1.918525 2.54473,-2.512315 3.360695,-3.041933 1.791146,-1.162577 3.930754,-2.043695 6.101013,-2.512475 0.981555,-0.212018 1.424586,-0.23746 4.22965,-0.242892 3.404382,-0.0066 3.907283,0.04706 5.591097,0.596441 5.860731,1.912212 10.074306,6.883722 11.486937,13.553196 0.613019,2.894263 0.632469,6.429085 0.05095,9.259823 -1.343893,6.541851 -4.978845,12.614233 -11.618779,19.409794 -4.26284,4.362752 -8.96255,8.239708 -14.585834,12.032368 -3.456761,2.331434 -6.528839,4.187928 -6.930074,4.187928 -0.113163,0 -0.715136,-0.283691 -1.33772,-0.630425 z"
     id="path2567" />
</svg>
