<?xml version="1.0" encoding="UTF-8" standalone="no"?>
<svg
   xmlns:dc="http://purl.org/dc/elements/1.1/"
   xmlns:cc="http://creativecommons.org/ns#"
   xmlns:rdf="http://www.w3.org/1999/02/22-rdf-syntax-ns#"
   xmlns:svg="http://www.w3.org/2000/svg"
   xmlns="http://www.w3.org/2000/svg"
   xmlns:xlink="http://www.w3.org/1999/xlink"
   xmlns:sodipodi="http://sodipodi.sourceforge.net/DTD/sodipodi-0.dtd"
   xmlns:inkscape="http://www.inkscape.org/namespaces/inkscape"
   width="90"
   height="90"
   fill="none"
   version="1.1"
   id="svg879"
   sodipodi:docname="heartred.svg"
   inkscape:version="1.0.2-2 (e86c870879, 2021-01-15)">
  <metadata
     id="metadata883">
    <rdf:RDF>
      <cc:Work
         rdf:about="">
        <dc:format>image/svg+xml</dc:format>
        <dc:type
           rdf:resource="http://purl.org/dc/dcmitype/StillImage" />
      </cc:Work>
    </rdf:RDF>
  </metadata>
  <sodipodi:namedview
     pagecolor="#ffffff"
     bordercolor="#666666"
     borderopacity="1"
     objecttolerance="10"
     gridtolerance="10"
     guidetolerance="10"
     inkscape:pageopacity="0"
     inkscape:pageshadow="2"
     inkscape:window-width="1254"
     inkscape:window-height="986"
     id="namedview881"
     showgrid="false"
     inkscape:zoom="5.3611111"
     inkscape:cx="43.217891"
     inkscape:cy="50.112717"
     inkscape:window-x="2638"
     inkscape:window-y="86"
     inkscape:window-maximized="0"
     inkscape:current-layer="svg879" />
  <defs
     id="defs865">
    <linearGradient
       id="prefix__a">
      <stop
         offset="0"
         stop-color="#a85340"
         id="stop859" />
      <stop
         offset="1"
         stop-color="#a85340"
         stop-opacity="0"
         id="stop861" />
    </linearGradient>
    <linearGradient
       xlink:href="#prefix__a"
       id="prefix__b"
       x1="69.586"
       y1="54.857"
       x2="70.048"
       y2="55.199"
       gradientUnits="userSpaceOnUse"
       gradientTransform="matrix(1.05216 0 0 1.06552 -.464 -3.17)" />
  </defs>
  <path
     fill="#a85340"
     fill-rule="evenodd"
     d="m 62.075,7.5 c -5.43,0 -8.928,0.647 -12.94,2.61 -1.480491,0.723536 -2.879432,1.603196 -4.173,2.624 C 43.71398,11.767668 42.372279,10.928812 40.957,10.23 36.867,8.208 33.188,7.5 27.954,7.5 13.938,7.5 3.75,19.115 3.75,34.2 c 0,11.392 6.352,22.396 18.183,33.037 6.21,5.586 14.14,11.113 19.818,14.053 L 45,82.974 48.249,81.291 C 53.927,78.351 61.857,72.823 68.067,67.238 79.898,56.597 86.25,45.592 86.25,34.2 86.25,19.274 75.967,7.558 62.075,7.5 Z"
     clip-rule="evenodd"
     id="path867"
     sodipodi:nodetypes="ccccsscccccsc" />
</svg>
