<?xml version="1.0" encoding="UTF-8" standalone="no"?>
<svg
   xmlns:dc="http://purl.org/dc/elements/1.1/"
   xmlns:cc="http://creativecommons.org/ns#"
   xmlns:rdf="http://www.w3.org/1999/02/22-rdf-syntax-ns#"
   xmlns:svg="http://www.w3.org/2000/svg"
   xmlns="http://www.w3.org/2000/svg"
   xmlns:sodipodi="http://sodipodi.sourceforge.net/DTD/sodipodi-0.dtd"
   xmlns:inkscape="http://www.inkscape.org/namespaces/inkscape"
   width="208.65401mm"
   height="77.982002mm"
   viewBox="0 0 208.654 77.982002"
   version="1.1"
   id="svg5"
   sodipodi:docname="Logo_Schrift_dark.svg"
   inkscape:version="1.0.2-2 (e86c870879, 2021-01-15)">
  <metadata
     id="metadata50">
    <rdf:RDF>
      <cc:Work
         rdf:about="">
        <dc:format>image/svg+xml</dc:format>
        <dc:type
           rdf:resource="http://purl.org/dc/dcmitype/StillImage" />
        <dc:title></dc:title>
      </cc:Work>
    </rdf:RDF>
  </metadata>
  <sodipodi:namedview
     id="namedview7"
     pagecolor="#ffffff"
     bordercolor="#666666"
     borderopacity="1.0"
     inkscape:pageshadow="2"
     inkscape:pageopacity="0.0"
     inkscape:pagecheckerboard="0"
     inkscape:document-units="mm"
     showgrid="false"
     inkscape:zoom="1.4142136"
     inkscape:cx="540.58312"
     inkscape:cy="377.59502"
     inkscape:window-width="2560"
     inkscape:window-height="1401"
     inkscape:window-x="0"
     inkscape:window-y="0"
     inkscape:window-maximized="0"
     inkscape:current-layer="layer5"
     inkscape:document-rotation="0"
     units="mm" />
  <defs
     id="defs2">
    <rect
       x="-888.81915"
       y="136.5229"
       width="66.251724"
       height="28.538054"
       id="rect48056" />
    <rect
       x="70"
       y="70"
       width="135"
       height="45"
       id="rect41287" />
    <rect
       x="70"
       y="70"
       width="135"
       height="45"
       id="rect41287-2" />
    <rect
       x="-888.81915"
       y="136.5229"
       width="57.580368"
       height="35.874466"
       id="rect48056-0" />
    <rect
       x="-888.81915"
       y="136.5229"
       width="32.633572"
       height="29.300985"
       id="rect48056-4" />
    <rect
       x="-888.81915"
       y="136.5229"
       width="33.215084"
       height="29.705683"
       id="rect48056-2" />
    <rect
       x="-888.81915"
       y="136.5229"
       width="89.61171"
       height="36.999069"
       id="rect48056-1" />
    <rect
       x="-888.81915"
       y="136.5229"
       width="57.580368"
       height="35.874466"
       id="rect48056-0-5" />
    <rect
       x="-888.81915"
       y="136.5229"
       width="32.633572"
       height="29.300985"
       id="rect48056-4-5" />
    <rect
       x="-888.81915"
       y="136.5229"
       width="33.215084"
       height="29.705683"
       id="rect48056-2-4" />
    <rect
       x="-888.81915"
       y="136.5229"
       width="57.580368"
       height="35.874466"
       id="rect48056-0-5-3" />
  </defs>
  <g
     inkscape:groupmode="layer"
     id="layer5"
     inkscape:label="Ebene 4"
     style="display:inline">
    <text
       xml:space="preserve"
       style="font-style:normal;font-weight:normal;font-size:10.5833px;line-height:1.25;font-family:sans-serif;fill:#000000;fill-opacity:1;stroke:none;stroke-width:0.264583"
       x="13.064447"
       y="220.28113"
       id="text93528"><tspan
         sodipodi:role="line"
         id="tspan93526"
         style="stroke-width:0.264583"
         x="13.064447"
         y="220.28113" /></text>
    <g
       id="g1429"
       transform="matrix(3.1732831,0,0,3.1732831,-71.024769,-20.950604)">
      <path
         class="st0"
         d="m 30.162743,21.595691 h -1.86002 l 1.19665,-1.24499 c 0.2746,0.22795 0.56942,0.61226 0.66337,1.24499 z m 1.18509,6.40903 c -0.75875,0 -1.37297,0.6225 -1.37297,1.38819 h 2.55083 c 0,-0.38285 0.15319,-0.73062 0.40177,-0.98196 0.24858,-0.25133 0.59255,-0.40623 0.9712,-0.40623 z m 1.28191,-3.34041 c 0,-0.77592 0.18644,-1.35311 0.46826,-1.78126 l -1.36863,0.10814 c 0,0 -0.61856,0.64879 -0.61856,2.3263 0,1.67752 0.64023,2.68724 0.64023,2.68724 h 3.53071 c 10e-4,0 -2.65201,-0.14466 -2.65201,-3.34041 z m -0.10406,-8.13916 c -0.37865,-1.64391 -1.65189,-2.27956 -1.65189,-2.27956 l -0.0188,0.003 c -0.15609,-1.16022 -1.1981,-1.79148 -1.1981,-1.79148 -0.67059,0.39015 -0.93073,0.96151 -1.00299,1.50217 0,0 -3.42086,0.98196 -3.61164,3.12707 -0.19077,2.14511 -0.6359,1.99899 -0.6359,1.99899 0,0 1.26747,2.1714 4.55393,0.96734 0,0 0.25725,0.0672 0.53618,0.2981 0.27459,0.22649 0.57087,0.6108 0.6648,1.24498 h -2.44821 c -0.38154,0 -0.68938,0.31271 -0.68938,0.69701 0,0.1929 0.0766,0.36678 0.20233,0.49245 0.1243,0.12567 0.29772,0.20457 0.48705,0.20457 h 4.01918 l 1.36864,-0.10812 c -0.28182,0.42814 -0.46826,1.00386 -0.46826,1.78126 0,3.19575 2.65345,3.34041 2.65345,3.34041 h -1.38453 c -0.37865,0 -0.72262,0.15489 -0.9712,0.40623 -0.24858,0.25134 -0.40177,0.59911 -0.40177,0.98195 h 6.25352 c 1.32382,0 2.63032,-0.33462 3.78362,-0.99072 1.518928,-0.86214 3.087014,-2.43883 3.087014,-5.27365 0,-0.11106 -10e-4,-0.22064 -0.0029,-0.32731 -0.04487,-2.81583 -1.64034,-5.35256 -4.111694,-6.65308 -2.31526,-1.21868 -2.87602,-4.3516 -0.27893,-4.3516 3.22431,0 4.455651,1.93909 4.455651,1.93909 0,0 1.517503,-6.8737204 -6.596041,-6.8737204 -8.11353,0 -5.42251,9.1255004 -5.42251,9.1255004 -0.72839,0.22064 -1.17063,0.53921 -1.17063,0.53921 z"
         id="path7269-5-3-6"
         style="display:inline;fill:#a0412c;fill-opacity:0.869517;stroke-width:0.0145323" />
      <g
         id="g6926-6-0-7"
         transform="matrix(0.1008228,-0.08296577,0.08296577,0.1008228,-8.8061641,-18.625479)"
         style="display:inline">
        <g
           id="g6790-8-6-5"
           transform="matrix(-1.085759,0,0,-1.085759,11.694296,429.83427)"
           style="fill:none;fill-rule:evenodd;stroke:none;stroke-width:1">
          <polygon
             id="Path-92-8-3"
             points="0,24 0,0 24,0 24,24 " />
          <path
             d="M 6.18,20 C 4.9760192,20 4,19.023981 4,17.82 c 0,-1.203981 0.9760192,-2.18 2.18,-2.18 1.2039807,0 2.18,0.976019 2.18,2.18 C 8.36,19.023981 7.3839807,20 6.18,20 Z M 5.59,10.23 c 4.2,0.67 7.51,3.98 8.19,8.18 C 13.91,19.25 13.22,20 12.37,20 11.66,20 11.09,19.47 10.97,18.77 10.45,15.85 8.15,13.54 5.23,13.03 4.53,12.91 4,12.34 4,11.63 4,10.78 4.75,10.09 5.59,10.23 Z M 5.56,4.52 C 12.91,5.25 18.75,11.1 19.48,18.44 19.56,19.27 18.9,20 18.06,20 17.33,20 16.73,19.45 16.66,18.72 16.06,12.71 11.28,7.93 5.27,7.33 4.55,7.26 4,6.66 4,5.93 4,5.1 4.73,4.43 5.56,4.52 Z"
             id="🔹Icon-Color-6-9-5"
             fill="#1d1d1d"
             style="fill:#cccccc;fill-opacity:1" />
        </g>
        <g
           id="g6917-6-2-6"
           transform="matrix(0.82372671,0,0,0.82372671,-25.614959,380.68513)">
          <path
             d="m 34,12 a 1,1 0 0 1 -0.972,-1.239 35.173,35.173 0 0 0 0.927,-6.573 l -3.69,0.615 A 25.348,25.348 0 0 1 31,11 1,1 0 0 1 29,11 22.532,22.532 0 0 0 28.045,4.3 1,1 0 0 1 28.835,3.016 l 6,-1 A 1,1 0 0 1 36,3.023 38.225,38.225 0 0 1 34.971,11.239 1,1 0 0 1 34,12 Z"
             style="fill:#999999"
             id="path6903-4-6-2" />
          <path
             d="M 32,62 A 1,1 0 0 1 31.514,61.874 L 22.772,57.018 A 19.013,19.013 0 0 1 13,40.409 V 33 a 1,1 0 0 1 2,0 v 7.409 A 17.011,17.011 0 0 0 23.744,55.27 L 32,59.856 40.256,55.27 A 17.011,17.011 0 0 0 49,40.409 V 33 a 1,1 0 0 1 2,0 v 7.409 a 19.011,19.011 0 0 1 -9.773,16.609 l -8.741,4.856 A 1,1 0 0 1 32,62 Z"
             style="fill:#999999"
             id="path6905-95-6-9" />
          <path
             d="M 50,30 H 14 A 5.006,5.006 0 0 1 9,25 11.013,11.013 0 0 1 20,14 h 24 a 11.013,11.013 0 0 1 11,11 5.006,5.006 0 0 1 -5,5 z M 20,16 a 9.011,9.011 0 0 0 -9,9 3,3 0 0 0 3,3 h 36 a 3,3 0 0 0 3,-3 9.01,9.01 0 0 0 -9,-9 z"
             style="fill:#e78753"
             id="path6907-0-4-1" />
        </g>
      </g>
      <g
         id="g5829"
         transform="translate(142.65917,-186.57954)">
        <g
           id="g5553-8-5-2"
           style="display:inline;fill:none;stroke:#000000;stroke-opacity:1"
           transform="matrix(0.13057011,0,0,0.13057011,-93.564652,180.65068)">
          <path
             class="st0"
             d="m -143.91483,210.36123 h -14.30368 l 9.20237,-9.39995 c 2.11165,1.72112 4.3789,4.62275 5.10131,9.39995 z m 9.11346,48.38988 c -5.83484,0 -10.55828,4.69998 -10.55828,10.48117 h 19.61617 c 0,-2.8906 1.17808,-5.5164 3.08968,-7.41405 1.91161,-1.89764 4.55673,-3.06712 7.46859,-3.06712 z m 9.85809,-25.22099 c 0,-5.85842 1.43371,-10.21638 3.60093,-13.44899 l -10.52493,0.81643 c 0,0 -4.75678,4.89857 -4.75678,17.56423 0,12.66566 4.92349,20.28932 4.92349,20.28932 h 27.15143 c 0.0111,0 -20.39414,-1.09224 -20.39414,-25.22099 z m -0.8002,-61.45272 c -2.91186,-12.41191 -12.70327,-17.21118 -12.70327,-17.21118 l -0.14449,0.0221 c -1.2003,-8.76005 -9.21348,-13.52622 -9.21348,-13.52622 -5.15688,2.94576 -7.1574,7.25958 -7.7131,11.34172 0,0 -26.30677,7.41405 -27.77381,23.6102 -1.46705,16.19616 -4.89015,15.09288 -4.89015,15.09288 0,0 9.74695,16.39475 35.02013,7.30372 0,0 1.97828,0.50751 4.12328,2.25069 2.11165,1.71009 4.39002,4.61171 5.11243,9.39995 h -18.82707 c -2.93409,0 -5.30137,2.36102 -5.30137,5.26265 0,1.45633 0.58904,2.76923 1.55596,3.71805 0.9558,0.94883 2.28948,1.5446 3.74541,1.5446 h 30.90796 l 10.52493,-0.81643 c -2.16723,3.23261 -3.60093,7.57954 -3.60093,13.44899 0,24.12874 20.40526,25.22099 20.40526,25.22099 h -10.64719 c -2.91186,0 -5.55699,1.16948 -7.46859,3.06712 -1.9116,1.89764 -3.08968,4.52345 -3.08968,7.41405 h 48.090156 c 10.1804,0 20.227431,-2.52652 29.096382,-7.48025 11.680785,-6.50935 23.739446,-18.41375 23.739446,-39.81739 0,-0.83849 -0.01111,-1.66595 -0.02223,-2.47135 -0.344533,-21.26021 -12.614359,-40.41316 -31.619253,-50.23236 -17.804585,-9.20136 -22.116806,-32.85569 -2.144997,-32.85569 24.795274,0 34.264379,14.64053 34.264379,14.64053 0,0 11.669671,-51.898315 -50.724173,-51.898315 -62.39384,0 -41.69962,68.899865 -41.69962,68.899865 -5.60145,1.66596 -9.00232,4.07111 -9.00232,4.07111 z"
             id="Layer_6-7-0-7"
             style="fill:none;stroke:#000000;stroke-width:0.110733;stroke-opacity:1" />
          <g
             id="STROKES-1-4-0"
             transform="matrix(0.11113973,0,0,0.11032805,-212.51027,78.254424)"
             style="fill:none;stroke:#000000;stroke-opacity:1">
            <path
               class="st1"
               d="m 525.4,777.5 c 0,0 -56.9,-140 56.9,-205.6 0,0 109.3,65.6 78.7,183.7"
               id="path202-72-8-9"
               style="fill:none;stroke:#d4b3a7;stroke-opacity:1" />
            <path
               class="st1"
               d="m 725.7,1292.9 94.7,-7.4"
               id="path204-7-7-3"
               style="fill:none;stroke:#d4b3a7;stroke-opacity:1" />
            <path
               class="st1"
               d="m 512.8,674.7 c 0,0 -236.7,67.2 -249.9,214 -13.1,146.8 -44,136.8 -44,136.8 0,0 87.7,148.6 315.1,66.2 0,0 70,18.2 83.1,105.6 H 447.6 c -26.4,0 -47.7,21.4 -47.7,47.7 0,26.4 21.4,47.7 47.7,47.7 h 278 c 0,0 -42.8,44.4 -42.8,159.2 0,114.8 44.3,183.9 44.3,183.9"
               id="path206-2-1-6"
               style="fill:none;stroke:#d4b3a7;stroke-opacity:1" />
            <path
               class="st1"
               d="m 666.4,694.4 c 0,0 125.8,62.1 121.4,230.1"
               id="path208-2-7-0"
               style="fill:none;stroke:#d4b3a7;stroke-opacity:1" />
            <path
               class="st1"
               d="m 780.6,850.4 c 0,0 216.2,-154.3 444.6,74.1 228.4,228.4 30.6,598.2 30.6,598.2"
               id="path210-61-2-6"
               style="fill:none;stroke:#d4b3a7;stroke-opacity:1" />
            <path
               class="st1"
               d="m 932.2,1636 h -233 c -52.5,0 -95,42.5 -95,95 h 176.5"
               id="path212-06-7-2"
               style="fill:none;stroke:#d4b3a7;stroke-opacity:1" />
            <path
               class="st1"
               d="m 861.7,813.5 c 0,0 -186.2,-624.5 375.2,-624.5 561.4,0 456.3,470.6 456.3,470.6 0,0 -85.2,-132.7 -308.3,-132.7 -179.7,0 -141,214.4 19.3,297.8 171,88.9 281.3,262.6 284.4,455.3 0.1,7.4 0.2,14.8 0.2,22.4 0,194 -108.5,301.9 -213.7,360.9 -79.9,44.9 -170.2,67.8 -261.8,67.8 H 780.6 c 0,-52.5 42.5,-95 95,-95 h 95.8 c 0,0 -183.6,-9.9 -183.6,-228.6 0,-218.7 218.6,-205.6 218.6,-205.6"
               id="path214-1-2-6"
               style="fill:none;stroke:#d4b3a7;stroke-opacity:1" />
          </g>
          <path
             style="fill:none;stroke:#d4b3a7;stroke-width:5.665;stroke-linecap:round;stroke-linejoin:miter;stroke-miterlimit:4;stroke-dasharray:none;stroke-opacity:1"
             d="m -158.21851,210.36123 9.20237,-9.39995"
             id="path4932-5-2-1" />
        </g>
      </g>
      <text
         xml:space="preserve"
         transform="matrix(1.2603,0,0,1.2760038,1166.7198,-173.32514)"
         id="text48054-9-6-8"
         style="font-style:normal;font-weight:normal;font-size:24px;line-height:1.25;font-family:sans-serif;white-space:pre;shape-inside:url(#rect48056-0-5-3);display:inline;fill:#d4b3a7;fill-opacity:1;stroke:none;"><tspan
           x="-888.81836"
           y="158.41937"><tspan
             style="font-family:'Of Wildflowers and Wings';-inkscape-font-specification:'Of Wildflowers and Wings'">kiosa</tspan></tspan></text>
    </g>
  </g>
  <style
     id="style198">
        .st0{fill:#fff}.st1{fill:none;stroke:#231f20;stroke-width:50;stroke-linecap:round;stroke-linejoin:round;stroke-miterlimit:10}
    </style>
  <style
     id="style79059">
        .st0{fill:#fff}.st1{fill:none;stroke:#231f20;stroke-width:50;stroke-linecap:round;stroke-linejoin:round;stroke-miterlimit:10}
    </style>
</svg>
