<svg xmlns="http://www.w3.org/2000/svg" width="76" height="77" fill="none" viewBox="0 0 76 77">
  <path fill="#131C18" fill-rule="evenodd" d="m30.5 38.427 37.5-6.25V48.25c-2.22-1.117-4.788-1.75-7.5-1.75-8.148 0-15 5.71-15 13.125s6.852 13.125 15 13.125 15-5.71 15-13.125V.823L23 9.573V52c-2.22-1.117-4.788-1.75-7.5-1.75-8.148 0-15 5.71-15 13.125S7.352 76.5 15.5 76.5s15-5.71 15-13.125V38.427ZM23 63.375C23 66.315 19.778 69 15.5 69 11.222 69 8 66.315 8 63.375s3.222-5.625 7.5-5.625c4.278 0 7.5 2.685 7.5 5.625Zm37.5 1.875c4.278 0 7.5-2.685 7.5-5.625S64.778 54 60.5 54c-4.278 0-7.5 2.685-7.5 5.625s3.222 5.625 7.5 5.625Zm-30-34.427V15.927L68 9.677v14.896l-37.5 6.25Z" clip-rule="evenodd"/>
</svg>
