<svg xmlns="http://www.w3.org/2000/svg" width="90" height="90" fill="none" viewBox="0 0 90 90">
  <path fill="#000" fill-rule="evenodd" d="M52.5 22.5c0 1.078.114 2.13.33 3.142l-19.017 9.509A14.965 14.965 0 0 0 22.5 30c-8.284 0-15 6.716-15 15 0 8.284 6.716 15 15 15 4.515 0 8.564-1.995 11.313-5.15l19.017 9.508a15.062 15.062 0 0 0-.33 3.142c0 8.284 6.716 15 15 15 8.284 0 15-6.716 15-15 0-8.284-6.716-15-15-15a14.965 14.965 0 0 0-11.313 5.15L37.17 48.143c.216-1.013.33-2.064.33-3.142 0-1.078-.114-2.13-.33-3.142l19.017-9.509A14.965 14.965 0 0 0 67.5 37.5c8.284 0 15-6.716 15-15 0-8.284-6.716-15-15-15-8.284 0-15 6.716-15 15ZM30 45a7.5 7.5 0 1 1-15 0 7.5 7.5 0 0 1 15 0Zm37.5-15a7.5 7.5 0 1 0 0-15 7.5 7.5 0 0 0 0 15ZM75 67.5a7.5 7.5 0 1 1-15 0 7.5 7.5 0 0 1 15 0Z" clip-rule="evenodd"/>
</svg>
